<?xml version="1.0" standalone="no"?>
<!DOCTYPE svg PUBLIC "-//W3C//DTD SVG 1.1//EN" "http://www.w3.org/Graphics/SVG/1.1/DTD/svg11.dtd" >
<!--
2013-9-30: Created.
-->
<svg>
<metadata>
Created by iconfont
</metadata>
<defs>

<font id="iconfont" horiz-adv-x="1024" >
  <font-face
    font-family="iconfont"
    font-weight="500"
    font-stretch="normal"
    units-per-em="1024"
    ascent="896"
    descent="-128"
  />
    <missing-glyph />
    
    <glyph glyph-name="tupian" unicode="&#58962;" d="M913.903509 683.910717l-805.853631 0c-38.792515 0-70.352301-31.559786-70.352301-70.352301l0-626.775047c0-38.792515 31.559786-70.352301 70.352301-70.352301l805.853631 0c38.792515 0 70.352301 31.559786 70.352301 70.352301l0 626.775047C984.255811 652.35093 952.696024 683.910717 913.903509 683.910717zM108.049878 632.745407l805.853631 0c10.579963 0 19.186991-8.607028 19.186991-19.186991l0-321.058227-236.495272 236.496296c-27.431769 27.429723-72.062246 27.429723-99.494015 0L445.901583 377.79583l-53.064566 52.707432c-27.430746 27.430746-72.063269 27.430746-99.494015 0L88.862887 226.022125l0 387.53629C88.862887 624.138378 97.469915 632.745407 108.049878 632.745407zM913.903509-32.403622l-805.853631 0c-10.579963 0-19.186991 8.607028-19.186991 19.186991L88.862887 153.66312l240.660128 240.661152c7.480368 7.482415 19.653619 7.481392 27.195386-0.061398l322.30666-320.137251c4.990664-4.956895 11.510148-7.432273 18.027585-7.432273 6.576789 0 13.151531 2.520403 18.151405 7.554046 9.956769 10.024308 9.902534 26.222221-0.121773 36.178991L482.20337 341.738613l151.077857 151.077857c7.480368 7.480368 19.652596 7.482415 27.13501 0l272.675286-272.675286 0-233.357815C933.090501-23.796594 924.483472-32.403622 913.903509-32.403622z"  horiz-adv-x="1024" />

    
    <glyph glyph-name="fullscreen-exit" unicode="&#59052;" d="M733.1182592 197.22262301l177.76456818 0c6.73893945-0.15019349 13.5256155 2.29715399 18.66830734 7.43984582 9.99430827 9.99430827 9.99198037 26.19896718 0 36.19094756-5.0844763 5.0844763-11.77451634 7.55161771-18.43661255 7.46196651l-0.00116395 0.08848611-239.77608761-0.00116394c-0.09663602 0-0.18745117-0.02677874-0.28292323-0.02910777-0.50646813-0.00349298-1.0036224-0.11759389-1.50892658-0.15135858-2.10038784-0.1478656-4.11228957-0.54605483-6.04152718-1.17011683-0.66714055-0.21306595-1.35291107-0.35278165-2.00491577-0.62289807-0.85109987-0.35510955-1.62186354-0.84411392-2.42406286-1.28538169-0.65433373-0.35976761-1.33544619-0.64618382-1.96300118-1.0676588-1.39133269-0.93143609-2.69068629-1.98977991-3.87011698-3.1692106-1.17943069-1.18059463-2.23777565-2.47878429-3.16921059-3.87011698-0.41914595-0.62522595-0.70439822-1.30517447-1.06300189-1.9571803-0.42263893-0.76727069-0.90931427-1.49379072-1.25161699-2.30763292-0.01746489-0.03725767-0.02212181-0.08150016-0.03842162-0.12225082-0.26895246-0.64851285-0.40633913-1.32962531-0.61824113-1.99560192-0.62988402-1.93855147-1.02923719-3.96209607-1.17593771-6.07412678-0.03260075-0.49715427-0.14553657-0.98732259-0.15019349-1.48564082-0.00116395-0.09663602-0.02794269-0.18628722-0.02794269-0.28292324l-0.00116395-236.66625536 0.0337647 0c0.00349298-6.54566627 2.5009061-13.08900466 7.4934033-18.08150186 9.99430827-9.99430827 26.19663815-9.99430827 36.19094756 0 5.08098333 5.08214841 7.55045376 11.7663653 7.46429554 18.42613361l-0.00116395 174.54180011 225.11528391-225.11528391c9.99430827-9.99430827 26.19663815-9.99430827 36.18978361 0 9.99430827 9.99430827 9.99430827 26.19663815 0 36.19094755L733.1182592 197.22262301zM647.4971648 544.90441159c0.00465693-0.50530418 0.11759389-1.0036224 0.15135858-1.50776263 0.14902955-2.10038784 0.54605483-4.11345465 1.17011683-6.04269113 0.2142299-0.66830563 0.3539456-1.35291107 0.62289806-2.00491577 0.35510955-0.85226382 0.84527787-1.62186354 1.28654564-2.42406286 0.35860253-0.65549767 0.64618382-1.33544619 1.06649372-1.96416626 0.93143609-1.39133269 1.99094499-2.69068629 3.1692106-3.86895189 1.17943069-1.17943069 2.47878429-2.23777565 3.87011698-3.1692106 0.62406201-0.42031104 1.30517447-0.70439822 1.9571803-1.06300188 0.7661056-0.42263893 1.49379072-0.90931427 2.30763292-1.25278094 0.03842162-0.01513586 0.08150016-0.02212181 0.12225082-0.03725768 0.64851285-0.26895246 1.32962531-0.40633913 1.99560192-0.61940508 1.93855147-0.62871893 3.96209607-1.02923719 6.07412678-1.17477376 0.49715427-0.03376469 0.98848654-0.14670165 1.48680477-0.15019349 0.09663602-0.00116395 0.18628722-0.02910777 0.28292323-0.02910777l236.66625536-0.00116395 0 0.03376469c6.54566627 0.00349298 13.09016974 2.49974101 18.08266696 7.49340331 9.99430827 9.99430827 9.99430827 26.19663815 0 36.19094756-5.08214841 5.08098333-11.7663653 7.54928867-18.42613362 7.46313159L734.84025173 570.77621191l225.11411997 225.11528391c9.99430827 9.99430827 9.99430827 26.19663815 0 36.18978361-9.99314432 9.99430827-26.19547421 9.99430827-36.18978361 0L698.64930418 606.96832455l0.00116395 177.76573326c0.15019349 6.73893945-2.29715399 13.52445155-7.44100978 18.66830734-9.99430827 9.99314432-26.19780323 9.99314432-36.19094756 0-5.08331235-5.0844763-7.55045376-11.77451634-7.4619665-18.43661254l-0.08848612 0 0.00116394-239.77841551C647.46922211 545.09069881 647.49600085 545.00104875 647.4971648 544.90441159zM379.94332615 223.10373831000004c-0.00349298 0.49831822-0.11526485 0.98848654-0.14902954 1.48564082-0.14670165 2.11203072-0.54605483 4.13557646-1.17477376 6.07412679-0.21306595 0.66481266-0.35045262 1.34592512-0.61940509 1.99560192-0.01513586 0.04075065-0.02212181 0.08382919-0.03725767 0.12225081-0.34346667 0.81267826-0.82897806 1.54036224-1.25278094 2.30763292-0.35860253 0.65200469-0.64269085 1.33195321-1.06300189 1.9571803-0.93143609 1.39133269-1.98861597 2.68952121-3.16921059 3.8689519-1.17943069 1.17943069-2.47878429 2.23777565-3.8689519 3.1692106-0.62871893 0.42031104-1.30866745 0.7078912-1.96416626 1.0676588-0.80103538 0.44126777-1.5717979 0.93143609-2.42406286 1.28654564-0.65200469 0.27011641-1.33661127 0.40983211-2.00491576 0.62173412-1.92923648 0.62406201-3.94230329 1.02225123-6.04269114 1.17011683-0.50414023 0.03492864-1.00245845 0.1478656-1.50776262 0.15135858-0.09663602 0.00116395-0.18628722 0.03027171-0.28292324 0.03027171l-239.7784155 0.00116395 0-0.08848611c-6.66209621 0.0896512-13.35213511-2.37865529-18.43661256-7.4631316-9.99314432-9.99198037-9.99314432-26.19663815 0-36.1897836 5.14385579-5.1426907 11.92936675-7.59003933 18.66830735-7.44100978l177.76573326 0.00116394-225.11644786-225.11528391c-9.99314432-9.99430827-9.99314432-26.19663815 0-36.19094755 9.99430827-9.99314432 26.19663815-9.99314432 36.19094756 0l225.11528391 225.11644786 0-174.54180011c-0.08615822-6.65976718 2.38098318-13.34515029 7.46313159-18.42613362 9.99430827-9.99430827 26.19663815-9.99430827 36.19094755 0 4.99366115 4.99366115 7.49107427 11.53699954 7.49340331 18.08266695l0.03376469 0-0.00116394 236.66625536C379.97243392 222.91745109 379.94449123 223.00710115000004 379.94332615 223.10373831000004zM289.15974827 569.0635343700001L114.61794816 569.0635343700001c-6.65976718 0.08615822-13.34515029-2.38214713-18.42613362-7.46429554-9.99314432-9.99430827-9.99430827-26.19663815 0-36.18978361 4.99366115-4.99366115 11.53699954-7.49107427 18.0838309-7.49456725l0-0.0337647 236.66509141 0.00116395c0.0978011 0 0.18745117 0.02677874 0.28292324 0.02910777 0.49831822 0.00349298 0.98965049 0.11642994 1.48680476 0.14902954 2.11203072 0.14670165 4.13557646 0.54721877 6.0741268 1.17593771 0.66481266 0.21306595 1.34592512 0.35045262 1.99560192 0.61940509 0.03958557 0.01513586 0.08266525 0.02095787 0.1222508 0.03725766 0.81267826 0.34346667 1.54036224 0.82897806 2.30763293 1.251617 0.65200469 0.35860253 1.33311829 0.64385479 1.9571803 1.06300188 1.39133269 0.93143609 2.68952121 1.98977991 3.86895189 3.1692106 1.17943069 1.17943069 2.23777565 2.47878429 3.1692106 3.87011698 0.42031104 0.62871893 0.7078912 1.30866745 1.06649372 1.96300117 0.44126777 0.80103538 0.93143609 1.5717979 1.28654564 2.42406287 0.26895246 0.65200469 0.40866702 1.33661127 0.62289806 2.00491576 0.62406201 1.92923648 1.02225123 3.94230329 1.17011684 6.04269113 0.03492864 0.50414023 0.14670165 1.00245845 0.15135858 1.50776263 0.00116395 0.09663602 0.02910777 0.18628722 0.02910776 0.28292324l0.00116395 239.77725156-0.08732217 0.00116394c0.08848611 6.66209621-2.37981923 13.35213511-7.46313159 18.43544747-9.99314432 9.99314432-26.19663815 9.99430827-36.18978361 0-5.14385579-5.14385579-7.59120327-11.92936675-7.44100978-18.66830735l0.00116395-177.76573326-225.11644786 225.11528392c-9.99430827 9.99430827-26.19663815 9.99430827-36.18978361 0-9.99314432-9.99430827-9.99430827-26.19663815 0-36.19094756L289.15974827 569.0635343700001z"  horiz-adv-x="1024" />

    
    <glyph glyph-name="play" unicode="&#59033;" d="M512-96C246.896-96 32 118.89599999999996 32 384 32 649.104 246.896 864 512 864c265.104 0 480-214.896 480-480C992 118.89599999999996 777.104-96 512-96zM512 816C273.40800031 816 80 622.59199969 80 384c0-238.59199969 193.40800031-432 432-432 238.59199969 0 432 193.40800031 432 432C944 622.59199969 750.59199969 816 512 816zM682.448 345.79200000000003l-231.42400031-147.29599969-0.17599969 0.30400032c-1.64800031-1.056-3.37600031-1.99999969-5.16799969-2.832-0.06400031-0.03199969-0.12799969-0.06400031-0.192-0.096-1.74400031-0.79999969-3.552-1.47199969-5.424-2.03200032-0.12799969-0.03199969-0.25600031-0.07999969-0.384-0.11200031-0.79999969-0.22399969-1.61599969-0.44800031-2.43199969-0.624-0.144-0.03199969-0.288-0.06400031-0.432-0.096-0.912-0.192-1.84000031-0.36799969-2.784-0.51199969-0.144-0.01600031-0.30400031-0.03199969-0.44800031-0.06400031-0.78400031-0.11200031-1.56799969-0.192-2.36800031-0.25600031-0.25600031-0.01600031-0.49600031-0.048-0.75199969-0.06400031C429.536 192.048 428.59200031 192 427.63200031 192 403.53600031 192 384.00000031 211.84000031000005 384.00000031 236.30399999999997l0 0 0 0L384.00000031 531.696l0 0C384.00000031 556.15999969 403.53600031 576 427.63200031 576c9.13600031 0 17.59999969-2.84800031 24.60799969-7.71199969l229.824-145.84000031C695.168 414.78400031 704 400.44799969 704 384 704 367.71199968999997 695.34399969 353.48800030999996 682.448 345.79200000000003z"  horiz-adv-x="1024" />

    
    <glyph glyph-name="weibiaoti14" unicode="&#58912;" d="M845.6 546.4l-384-384c-14.4-14.4-34.4-17.6-52-10.4-5.6 2.4-11.2 5.6-16 10.4L178.4 377.6c-18.4 18.4-18.4 49.6 0 68 18.4 18.4 49.6 18.4 68 0L428 264l350.4 350.4c18.4 18.4 48.8 18.4 68 0C864.8 595.2 864.8 564.8 845.6 546.4z"  horiz-adv-x="1024" />

    
    <glyph glyph-name="552cd47fba2cc" unicode="&#58897;" d="M698.824501 816.530041c-3.314489 0-321.075623 0.843204-321.075623 0.843204-56.613392 0-106.663298-46.019103-106.663298-101.731986l-0.358157-6.522554-30.916127-0.74292c-56.622602 0-102.871949-51.80283-102.871949-107.516736l0-541.300326c0-55.710836 50.417273-108.255563 107.031689-108.255563l401.337621 0c56.621579 0 107.030665 45.566802 107.030665 101.286848l0 7.264451 26.764574-0.295735c56.605206 0 107.013269 52.544727 107.013269 108.265796L886.117165 559.851077l0 40.371476L698.824501 816.530041zM698.824501 762.417609l0 0.030699 133.777843-162.225755-80.264045 0c-28.503171 0-53.514821 52.998051-53.514821 81.110319C698.824501 681.332872 698.824501 709.810461 698.824501 762.417609zM699.062931 55.052083c0-27.568892-25.666566-62.739926-53.753251-62.739926L243.971036-7.687844c-28.088732 0-66.437132 39.676651-66.437132 67.246567L177.533904 600.85905c0 27.569916 35.80753 66.37164 63.886029 66.37164l29.30749 0.877997 0-500.285191c0-55.721069 50.408063-108.265796 107.021455-108.265796l321.31303 0.295735L699.061908 55.052083zM845.523631 167.824519c0-27.577079-38.346353-67.2568-66.418712-67.2568L364.828614 100.567719c-28.078499 0-53.505611 39.678698-53.505611 67.2568L311.323003 709.118706c0 27.567869 25.427112 67.254753 53.505611 67.254753l293.402353 0c-0.430812-62.349023 0-122.078383 0-122.078383 0-56.215326 37.104059-94.442976 94.109378-94.442976 0 0 41.343617 0 93.184309 0L845.524654 167.824519zM698.824501 437.997821 458.023156 437.997821c-14.777565 0-26.758434-12.107759-26.758434-27.04496 0-14.926968 11.980869-27.03575 26.758434-27.03575l240.801345 0c14.783705 0 26.765597 12.108782 26.765597 27.03575C725.590098 425.890063 713.608206 437.997821 698.824501 437.997821zM698.824501 302.79963 458.023156 302.79963c-14.777565 0-26.758434-12.108782-26.758434-27.036773 0-14.936177 11.980869-27.037796 26.758434-27.037796l240.801345 0c14.783705 0 26.765597 12.101619 26.765597 27.037796C725.590098 290.690848 713.608206 302.79963 698.824501 302.79963z"  horiz-adv-x="1024" />

    
    <glyph glyph-name="face" unicode="&#58892;" d="M966.90663146 450.5859232C940.39576853 700.37098347 716.63195093 881.2019626700001 467.12049173 854.48882027 217.60913173 827.77557973 36.81964906 603.62860907 63.3511456 353.82296533 89.8620096 104.03800320000005 313.62582613-76.79307519999998 563.15791893-50.07983360000003 812.6486464-23.366690130000052 993.43812693 200.8009568 966.90663146 450.5859232L966.90663146 450.5859232ZM649.20975573 588.3491413300001C689.0895328 588.3491413300001 721.41831786 555.9500800000001 721.41831786 515.98360533 721.41831786 476.01713493 689.0895328 443.6180704 649.20975573 443.6180704 609.32997866 443.6180704 577.0011936 476.01713493 577.0011936 515.98360533 577.00129493 555.9500800000001 609.3300768 588.3491413300001 649.20975573 588.3491413300001L649.20975573 588.3491413300001ZM381.00675626 588.3491413300001C420.88653333 588.3491413300001 453.2153184 555.9500800000001 453.2153184 515.98360533 453.2153184 476.01713493 420.88653333 443.6180704 381.00675626 443.6180704 341.1269792 443.6180704 308.79819413 476.01713493 308.79819413 515.98360533 308.79819413 555.9500800000001 341.1269792 588.3491413300001 381.00675626 588.3491413300001L381.00675626 588.3491413300001ZM737.7168224 278.83163947C715.682928 180.72472000000005 616.09701866 112.82521172999998 515.108256 112.82521172999998 410.4678464 112.82521172999998 311.3771264 182.56485439999994 291.59193493 282.78071466999995 291.59193493 309.86605867000003 312.22298133 319.5837696 324.9316384 319.5837696L700.16837973 319.5837696C709.4110816 319.56309333 744.75199253 316.35832107 737.7168224 278.83163947L737.7168224 278.83163947Z"  horiz-adv-x="1024" />

    
    <glyph glyph-name="yuyin" unicode="&#58969;" d="M650.40384-128l-54.38464 70.88128c101.25312 116.43904 165.35552 271.39072 165.35552 441.58976 0 170.40384-64.26624 325.62176-165.77536 442.0608L649.984 896c115.28192-136.92928 186.27584-313.74336 186.27584-511.52896C836.25984 186.22464 766.1568 9.09312 650.40384-128L650.40384-128zM384.47104 83.49696c74.55744 76.34944 122.0096 182.95808 122.0096 300.97408 0 115.70176-45.66016 220.47744-117.59616 296.45824l48.49664 73.24672c87.12192-96.21504 141.76256-226.36544 141.76256-369.70496 0-145.9712-54.28224-274.54464-144.29184-371.28192L384.47104 83.49696 384.47104 83.49696zM191.36512 235.71456c43.66336 32.94208 56.80128 88.064 56.80128 148.91008 0 55.22432-23.43936 104.72448-60.42624 138.0352l38.67648 82.91328c58.48064-53.80096 95.36512-132.93568 95.36512-221.06112 0-86.95808-35.9424-165.15072-93.06112-218.95168L191.36512 235.71456 191.36512 235.71456z"  horiz-adv-x="1024" />

    
    <glyph glyph-name="xiangpica" unicode="&#58887;" d="M988.00071111 533.6746666700001L676.76956445 844.90695111c-40.44117333 40.44231111-106.02268445 40.44231111-146.46385778 0L35.99928889 350.60053332999996c-40.44117333-40.44117333-40.44117333-106.02268445 0-146.46385778l226.64760889-226.62257777 0.23324444-0.20593778-7.14524444 7.14524445c91.00515555-91.00629333 238.53056-91.00629333 329.53685333 0l-1.21742222-1.21742223 0.05233778 0.05233778L988.02801778 387.18577778c40.41500445 40.46734222 40.41500445 106.04885333-0.02616889 146.48888889zM310.64746667 7.0826666699999805L169.23306667 145.75274666999996v-0.02503112l-100.35313778 100.3781689c-20.22058667 20.22058667-20.22058667 53.02385778 0 73.21941333l92.06670222 89.37472 390.89948444-388.18019556c-60.68906667-60.63672889-180.56192-74.07388445-241.19864888-13.43715555z m639.11253333 414.07146666L674.41436445 143.08693332999997v0.02503112l-85.95797334-85.95683556L197.55690667 445.36035555l361.30588444 363.99786667c20.22058667 20.19555555 52.99768889 20.19555555 73.21827556 0l317.67893333-314.98695111c20.19555555-20.24675555 20.19555555-53.02385778 0-73.21941333z"  horiz-adv-x="1024" />

    
    <glyph glyph-name="media" unicode="&#59021;" d="M893.55301925 832.87912297h-766.3828385c-35.12486875 0-63.71676918-28.57733689-63.7167692-63.700992v-767.08067556c0-35.12365511 28.59068682-63.70220563 63.7167692-63.70220563h766.3828385c35.12486875 0 63.71555555 28.57855052 63.71555557 63.70220563v767.08067556c0 35.12486875-28.58947318 63.70220563-63.71555557 63.70220562zM119.43329185 644.89274785h781.8529754v-526.21524385h-781.8529754v526.21524385zM127.17018075 776.90166992h766.3828385c4.26469452 0 7.73567525-3.45763082 7.73567527-7.72353895v-68.30793008h-781.85297541v68.30793008c0 4.26469452 3.47098075 7.72353897 7.73567526 7.72353895zM893.55301925-5.622442670000055h-766.3828385c-4.26469452 0-7.73567525 3.45641718-7.73567527 7.72232534v60.59895466h781.85418904v-60.59895466c0-4.26469452-3.46976711-7.72232533-7.73567527-7.72232534zM676.82425363 409.89036089l-224.05544771 129.35714133c-4.01347318 2.35808237-8.84129185 3.75132918-13.99436325 3.75132919s-9.98089008-1.39324682-14.12664889-3.82293333c-8.29273125-4.85573215-13.86207763-13.860864-13.86207763-24.16579319 0-0.00364089 0-0.00728178 0-0.00849541v-258.72884623c0-0.00242725 0-0.00606815 0-0.0084954 0-10.30371555 5.56934637-19.30763378 13.86207763-24.16579318 4.13726341-2.42604563 8.95294578-3.81565155 14.09630814-3.81565156 0.00970903 0 0.02305897 0 0.032768 0 0.00849541 0 0.01699082 0 0.02669986 0 5.14214875 0 9.96025837 1.39081955 14.09752177 3.81443792l223.92316208 129.29767349c8.42380325 4.9273363 13.99314963 13.93246815 13.99314962 24.2361837 0 0.00364089 0 0.00728178 0 0.00970903 0 0.00364089 0 0.00849541 0 0.00849542 0 10.30250192-5.56934637 19.30520652-13.86207762 24.1621523zM466.76438282 304.74998517999995v161.77440237l140.08562726-80.8799194-140.08562726-80.89448297z"  horiz-adv-x="1024" />

    
    <glyph glyph-name="zhuashou" unicode="&#58922;" d="M482.5295 799.22727305c26.59090869 0 47.04545479-18.40909131 49.09090869-40.90909131L558.21131826 465.81818174c4.09090869-18.40909131 10.22727305-24.54545479 16.36363653-24.54545477 10.22727305 0 16.36363653 16.36363653 16.36363652 16.36363651l49.09090869 243.40909131c4.09090869 22.50000001 24.54545479 36.81818174 49.09090869 36.81818173h8.18181826c26.59090869-4.09090869 45-28.63636347 40.90909131-53.18181826l-47.04545478-237.27272695s2.04545479-34.77272695 14.31818173-34.77272784c4.09090869 0 10.22727305 4.09090869 18.40909132 14.31818174l79.77272695 153.40909131c10.22727305 14.31818174 26.59090869 20.45454521 42.95454521 20.45454522 8.18181826 0 18.40909131-2.04545479 26.59090957-6.13636348 22.50000001-12.27272694 30.68181826-40.90909131 16.36363653-61.36363652l-139.09090958-263.86363653c-2.04545479-4.09090869-2.04545479-6.13636347-4.09090868-10.22727216-4.09090869-22.50000001-22.50000001-116.59090869-69.54545479-198.40909131-4.09090869-6.13636347-4.09090869-10.22727305-4.09090869-16.36363653v-34.77272695c0-20.45454521-18.40909131-36.81818174-38.86363652-36.81818174H419.12040869c-22.50000001 0-38.86363653 16.36363653-38.86363564 36.81818174v30.68181826c0 10.22727305-4.09090869 20.45454521-12.27272784 26.59090869-16.36363653 14.31818174-51.13636347 45-90 92.04545479l-6.13636347 6.13636347-163.63636348 124.77272784c-20.45454521 16.36363653-24.54545479 45-6.13636347 63.40909043 10.22727305 10.22727305 24.54545479 16.36363653 38.86363652 16.36363652 12.27272694 0 22.50000001-4.09090869 32.72727217-10.22727305l96.13636347-67.5c10.22727305-6.13636347 22.50000001-12.27272694 34.77272784-12.27272695 28.63636347 0 51.13636347 32.72727306 10.22727216 151.36363653L230.93859131 662.18181826c-8.18181826 22.50000001 8.18181826 49.09090869 34.77272695 55.22727305 4.09090869 2.04545479 10.22727305 2.04545479 14.31818174 2.0454539 20.45454521 0 40.90909131-12.27272694 47.04545479-32.72727218l79.77272695-233.18181824c0-2.04545479 2.04545479-4.09090869 2.04545479-6.13636348 6.13636347-14.31818174 22.50000001-36.81818174 32.72727216-36.81818262 8.18181826 0 16.36363653 12.27272694 14.31818262 51.13636434L431.39313652 750.13636348c-2.04545479 24.54545479 18.40909131 47.04545479 45.00000001 49.09090957h6.13636347z m-20.45454521 32.72727216h-8.18181827c-69.54545479-16.36363653-71.59090869-104.31818174-65.45454521-159.5454539-20.45454521 20.45454521-30.68181826 79.77272695-85.90909131 87.95454521-10.22727305 2.04545479-20.45454521-2.04545479-30.68181826-4.09090955-30.68181826-10.22727305-53.18181826-26.59090869-65.45454522-49.09090871-14.31818174-24.54545479-16.36363653-51.13636347-8.18181826-75.68181825l75.68181826-237.27272696c6.13636347-16.36363653 18.40909131-45 20.45454522-57.27272784l-51.13636348 38.86363653c-22.50000001 14.31818174-53.18181826 30.68181826-77.72727305 32.72727305-38.86363653 4.09090869-61.36363652-12.27272694-81.81818174-34.77272784-18.40909131-20.45454521-24.54545479-30.68181826-20.45454521-57.27272694 2.04545479-26.59090869 16.36363653-51.13636347 36.81818174-67.50000001l143.18181826-110.45454521 8.18181827-8.18181827c22.50000001-34.77272695 47.04545479-61.36363652 67.49999999-77.72727305 8.18181826-6.13636347 12.27272694-16.36363653 12.27272695-26.59090868v-57.27272784c0-20.45454521 16.36363653-34.77272695 36.81818174-34.77272695H685.0295c20.45454521 0 36.81818174 16.36363653 36.81818174 34.77272695v75.68181826c0 6.13636347 2.04545479 10.22727305 4.09090957 16.36363653 38.86363653 73.63636348 57.27272694 155.45454521 63.40909043 186.13636347 0 4.09090869 2.04545479 6.13636347 4.09090957 10.22727305l124.77272695 241.36363653c28.63636347 45 12.27272694 104.31818174-36.81818173 132.95454522-16.36363653 10.22727305-32.72727306 12.27272694-51.13636348 10.22727305-30.68181826-4.09090869-47.04545479-24.54545479-59.31818174-32.72727306l6.13636348 26.59090869c10.22727305 53.18181826 8.18181826 120.68181826-77.72727305 139.09090957-6.13636347 2.04545479-12.27272694 2.04545479-18.40909043 2.0454548-83.86363653 6.13636347-67.50000001-75.68181826-87.9545461-98.18181827v6.13636347c-6.13636347 49.09090869 10.22727305 161.59090869-130.90909042 147.27272695"  horiz-adv-x="1025" />

    
    <glyph glyph-name="suoxiao" unicode="&#59000;" d="M950.2-7.9L742.1 200.2c56.8 67 91.1 153.7 91.1 248.4 0 212.2-172.1 384.3-384.3 384.3S64.6 660.8 64.6 448.6s172.1-384.3 384.3-384.3c94.5 0 181 34.1 247.9 90.7l208.1-208.1c6.2-6.2 14.4-9.4 22.6-9.4s16.4 3.1 22.6 9.4c12.5 12.4 12.5 32.7 0.1 45.2zM448.9 128.3c-43.3 0-85.2 8.5-124.7 25.1-38.1 16.1-72.4 39.2-101.8 68.7-29.4 29.4-52.5 63.7-68.7 101.8-16.7 39.4-25.1 81.4-25.1 124.7s8.5 85.2 25.1 124.7c16.1 38.1 39.2 72.4 68.7 101.8 29.4 29.4 63.7 52.5 101.8 68.7 39.4 16.7 81.4 25.1 124.7 25.1s85.2-8.5 124.7-25.1c38.1-16.1 72.4-39.2 101.8-68.7 29.4-29.4 52.5-63.7 68.7-101.8 16.7-39.4 25.1-81.4 25.1-124.7s-8.5-85.2-25.1-124.7c-16.1-38.1-39.2-72.4-68.7-101.8-29.4-29.4-63.7-52.5-101.8-68.7-39.5-16.7-81.4-25.1-124.7-25.1zM640.1 481.5H256c-17.7 0-32-14.3-32-32s14.3-32 32-32h384.1c17.7 0 32 14.3 32 32s-14.3 32-32 32z"  horiz-adv-x="1024" />

    
    <glyph glyph-name="bofang" unicode="&#58900;" d="M789.94659138 346.19694614L301.04157876 65.78808689000005c-29.40237522-17.59797335-68.0744648 4.34517861-68.07446479 38.02031279V664.9882164c1.44839287 32.80609847 40.62741996 54.24231292 70.60915232 37.80305386L790.3086896 422.38241101c29.40237522-17.59797335 29.40237522-58.44265223-0.36209822-76.18546487z"  horiz-adv-x="1024" />

    
    <glyph glyph-name="fangda" unicode="&#58940;" d="M953.3375-42.03750000000002a29.98125 29.98125 0 0 0-41.23125 0l-233.2125 225.5625a384.75 384.75 0 0 0-238.275-81.7875C231.5375 101.73749999999995 62 265.70624999999995 62 467.925 62 670.0875 231.5375 834 440.5625 834c209.08125 0 378.5625-163.9125 378.5625-366.075 0-94.6125-37.29375-180.45-98.15625-245.41875l232.3125-224.71875a27.5625 27.5625 0 0 0 0-39.825z m-192.375 509.9625c0 171.1125-143.4375 309.76875-320.34375 309.76875-176.90625 0-320.34375-138.65625-320.34375-309.76875s143.4375-309.825 320.34375-309.825c176.90625 0 320.34375 138.7125 320.34375 309.825z m-173.25-30.15H305a27.16875 27.16875 0 0 0-27.5625 26.6625c0 14.7375 12.375 26.6625 27.5625 26.6625h282.65625c15.1875 0 27.5625-11.925 27.5625-26.6625s-12.375-26.6625-27.5625-26.6625zM473.01875 605.7375v-282.6c0-15.1875-11.925-27.5625-26.6625-27.5625a27.1125 27.1125 0 0 0-26.60625 27.5625V605.7375c0 15.1875 11.925 27.5625 26.60625 27.5625 14.7375 0 26.6625-12.375 26.6625-27.5625z"  horiz-adv-x="1024" />

    
    <glyph glyph-name="Shape" unicode="&#59177;" d="M591.488-96.768l-4.48-3.2-157.696 3.2-28.672 80.768a70.08 70.08 0 0 1-96.128 39.808l-82.752-35.84-109.248 113.792 36.736 77.376a70.272 70.272 0 0 1-39.808 96.256L25.6 308.672l3.2 157.696 80.64 28.736c17.472 6.208 31.808 19.136 39.296 33.728l2.56 6.784c7.04 17.152 6.4 37.952-2.048 55.68l-35.84 82.816L227.2 783.424l77.312-36.8c17.472-8.32 38.4-8.96 56.32-1.728a70.4 70.4 0 0 1 39.744 41.6L433.92 870.4l157.632-3.2 28.672-80.768a70.08 70.08 0 0 1 96.128-39.808l82.752 35.84 109.184-113.856-36.736-77.376a70.272 70.272 0 0 1 39.808-96.192l83.904-33.152-3.2-157.76-80.64-28.736a70.208 70.208 0 0 1-39.808-96.192l35.84-82.88-113.792-109.312-77.696 36.992a70.016 70.016 0 0 1-95.872-40.448l-28.544-80.32z m-38.528 44.992l18.688 52.544c11.072 31.104 34.304 56.512 62.784 69.248l9.792 4.48a121.856 121.856 0 0 0 93.76-4.096l45.632-25.28 65.6 61.248-24.064 50.816A121.6 121.6 0 0 0 894.08 323.84l49.728 14.336 3.2 89.792-52.928 18.816a121.408 121.408 0 0 0-68.992 166.592l25.024 45.376-61.12 65.728-50.688-24.128a120.32 120.32 0 0 0-92.8-4.48l-9.984 3.776a121.536 121.536 0 0 0-63.808 69.76l-14.272 49.728-89.728 3.2-18.816-52.992a119.296 119.296 0 0 0-62.336-68.736l-9.728-4.416a122.688 122.688 0 0 0-94.464 4.16l-45.248 25.088-65.664-61.248 24.128-50.752c14.08-29.632 15.552-63.808 4.48-92.8l-1.984-5.952A121.6 121.6 0 0 0 126.72 446.72l-49.792-14.4-3.2-89.792 52.992-18.816a121.728 121.728 0 0 0 68.928-166.656l-25.088-45.312 61.184-65.728 50.688 24.128a122.88 122.88 0 0 0 98.688 2.496 121.6 121.6 0 0 0 67.84-71.488l17.792-49.92 86.208-3.072z m-42.56 242.816A194.304 194.304 0 0 0 316.352 385.28a194.368 194.368 0 0 0 194.048 194.24 194.304 194.304 0 0 0 194.048-194.24 194.304 194.304 0 0 0-194.048-194.176z m0 337.088a142.976 142.976 0 0 1-142.72-142.912c0-78.72 64-142.784 142.72-142.784s142.72 64.064 142.72 142.784c0 78.784-64 142.912-142.72 142.912z"  horiz-adv-x="1024" />

    
    <glyph glyph-name="tubiaozhizuomoban" unicode="&#58985;" d="M794.7 414.9v32.6c0 17.1-14.1 31-31.3 31-17.4 0-31.3-13.9-31.3-31v-32.6c0-13.4-1.2-26.5-3.5-39.3l51.7-51.7c9.5 28.5 14.4 59.1 14.4 91z m-250.8-285c53.2 6 102 27 142.1 58.8 0 0 62.5 37.9 94.1 135.2 2.7 8.1-51 56.5-51.7 51.7-9.4-88.8-87.8-141.5-87.8-141.5-36.1-26.5-80.3-42.1-128.4-42.1-121.1-0.2-219.3 99.7-219.3 222.8v32.6c0 17.1-14.1 31-31.3 31-17.4 0-31.3-13.9-31.3-31v-32.6c0-147.6 109.8-269 251-284.9v-97.2H324.6V-31H701v63.6H544.1v97.2h-0.2v0.1zM512.4 254.2c-86.3 0-156.4 70.1-156.4 156.4V640.7C356 727 426.1 797 512.4 797c86.3 0 156.4-70.1 156.4-156.4v-230.1c0-86.3-69.9-156.3-156.4-156.3z"  horiz-adv-x="1024" />

    
    <glyph glyph-name="wenjian" unicode="&#59018;" d="M508.16948111 307.7583542c-4.31512803 0-6.47269149 0-10.78781838 2.15756344L68.02646927 551.56306146c-6.47269149 4.31512803-10.78781838 10.78781838-10.78781952 19.41807446s4.31512803 15.10294642 10.78781952 19.41807445L497.38166273 819.10097122c6.47269149 4.31512803 15.10294642 4.31512803 19.41807445 0l429.35519232-230.85932544c6.47269149-4.31512803 10.78781838-10.78781838 10.78781952-19.41807331s-4.31512803-15.10294642-10.78781952-19.41807445l-427.19762887-237.33201693c-2.15756345-2.15756345-6.47269149-4.31512803-10.78781952-4.31512689zM124.12312804 568.82357247l384.04635307-213.59881557 384.0463542 213.59881557-384.0463542 207.12612295L124.12312804 568.82357247zM508.16948111 135.15325098000005c-4.31512803 0-6.47269149 0-10.78781838 2.15756344L68.02646927 376.80039480000005c-10.78781838 6.47269149-12.94538297 19.41807445-8.63025494 30.20589284 6.47269149 10.78781838 19.41807445 15.10294642 30.20589284 8.63025606l418.56737394-233.01688888 418.56737508 233.01688888c10.78781838 6.47269149 23.73320135 2.15756345 30.20589283-8.63025606 6.47269149-10.78781838 2.15756345-23.73320135-8.63025493-30.20589284L518.95730063 137.31081442000004c-2.15756345-2.15756345-6.47269149-2.15756345-10.78781952-2.15756344zM508.16948111-39.60941568999999c-4.31512803 0-6.47269149 0-10.78781838 2.15756345L68.02646927 202.03772813c-10.78781838 6.47269149-12.94538297 19.41807445-8.63025494 30.20589284 6.47269149 10.78781838 19.41807445 15.10294642 30.20589284 8.63025607l418.56737394-233.01688889 418.56737508 233.01688889c10.78781838 6.47269149 23.73320135 2.15756345 30.20589283-8.63025607 6.47269149-10.78781838 2.15756345-23.73320135-8.63025493-30.20589284L518.95730063-37.451852239999994c-2.15756345-2.15756345-6.47269149-2.15756345-10.78781952-2.15756345z"  horiz-adv-x="1024" />

    
    <glyph glyph-name="shipin1" unicode="&#58886;" d="M445.92272118 223.52782221999996c-6.78783052 0-13.57323378 1.41387852-19.79551288 4.8084006-14.70555022 7.63615763-24.03836208 22.62326992-24.03836208 39.30825007V482.00301985c0 16.68498015 9.33281185 31.67330608 24.03836208 39.30825007 14.70555022 7.35338192 32.23764385 5.93950341 45.53052918-3.67487051l146.20596149-107.18048711c11.31224178-8.20049541 17.81486933-21.49338075 17.81486933-35.63216593 0-13.85722311-6.78783052-27.14889482-17.81486933-35.34939022l-146.20596149-107.18048712c-7.63615763-5.93950341-16.40220445-8.76604682-25.73380266-8.76604681z m-5.08996266 50.61927823z m13.5744474 190.88816355V284.0454637l123.29991586 90.49429333-123.29991586 90.49429334z m132.349952-83.70767645z m-81.44789807-354.62621866c-309.66124089 0-354.62621867 27.43167052-373.85739377 39.02547436-83.42490075 50.62049185-95.30269392 229.9124243-96.71657245 304.8528403 1.13110282 78.61771378 13.29288533 264.98025245 96.71657245 315.6007443 17.53452089 10.74547675 64.19493925 39.30825008 373.57340444 39.30825007 287.60352237 0 358.01952711-24.31992415 387.43062756-45.81330489 71.82988325-52.31714608 83.14212503-215.49086341 83.42490074-307.96458666-0.28398933-89.36319052-11.59501748-247.16416948-83.42490074-299.48131555-28.84676267-21.20939141-99.26155378-45.53052918-387.14663823-45.53052919z m0 646.47259022c-192.86759348 0-312.49021155-11.02825245-346.42450963-31.67330608-46.9444077-28.56277333-69.85045333-156.66866252-71.54710755-270.91854221 1.69665422-100.67664592 21.49338075-229.63207585 71.54710755-260.17185185 33.9355117-20.64384 153.55812978-31.391744 346.70849896-31.391744 254.51633778 0 334.26515437 19.22874785 356.60686223 35.63216592 37.89558518 27.43167052 61.6487443 126.12645925 61.93152 257.06131911-0.28398933 101.80653511-16.68498015 232.74139497-61.93152 265.82857955-22.62326992 16.11942875-102.93763792 35.63216592-356.88963793 35.63216593z"  horiz-adv-x="1024" />

    
    <glyph glyph-name="right" unicode="&#58881;" d="M270.8312339999999 885.6826199999998c-6.4483630000000005-2.220446049250313e-15-12.896724999999998-2.5793450000000027-18.055414999999996-7.738036000000006-10.317379999999996-10.317380000000002-10.317379999999993-25.793451000000005 1.0658141036401503e-14-36.11083099999999L714.478589 378.84131 265.67254400000024-69.96473600000013c-10.317379999999996-10.317380000000002-10.317379999999993-25.793451000000005 1.0658141036401503e-14-36.11083099999999 10.317380000000002-10.317379999999996 25.793451000000005-10.317379999999993 36.11083099999999 1.0658141036401503e-14L755.748111 347.88916900000004c7.738034999999996 7.738035000000001 12.896724999999991 19.345088 12.896724999999988 30.952141-4.440892098500626e-15 11.607053-5.158690000000011 23.214106-12.89672500000001 30.952140999999997L288.8866499999999 877.9445839999998c-5.158690000000001 5.158689999999998-11.607053000000002 7.7380349999999956-18.055416000000008 7.738035999999995z"  horiz-adv-x="1024" />

    
    <glyph glyph-name="huabi" unicode="&#58885;" d="M714.72469333 589.7079466600001L570.25422222 734.32405333l72.23523556 72.23523555c24.02986667 24.02986667 62.91456 24.02986667 86.94442667 0l57.52604444-57.52604444c24.02986667-24.02986667 24.02986667-62.91456 0-86.94442666l-72.23523556-72.38087112zM295.43992889 170.42318221999994l-144.47047111 144.47047111 392.34218667 389.42947555 144.4704711-144.4704711-392.34218666-389.42947556zM34.60664889 51.730204439999966l88.10951111 234.91015111 143.30538667-143.30538667-231.41489778-91.60476444zM864.72931555-39.43765334c-19.80643555 0-42.08867555 3.34961778-66.99235555 11.79648-29.85528889 10.04885333-58.69112889 26.65130667-89.27459555 44.27320889-75.00231111 43.25376-152.62606222 87.96387555-256.46421334 42.23431111-11.65084445-5.09724445-22.86478222-10.19448889-33.64181333-15.00046222-132.09144889-59.12803555-211.89973333-94.80874667-366.12778667-14.27228444-12.52465778 6.5536-17.33063111 21.99096889-10.77703111 34.36999111 6.5536 12.52465778 21.99096889 17.33063111 34.36999111 10.77703111 132.38272-69.17688889 191.65639111-42.67121778 321.70894222 15.58300444 10.92266667 4.80597333 22.13660445 9.90321778 33.93308445 15.14609778 127.43111111 56.21532445 224.42439111 0.29127111 302.48504889-44.71011556 28.39893333-16.31118222 55.05024-31.74855111 80.09955555-40.19541333 42.08867555-14.27228445 78.49756445-11.79648 108.35285333 7.13614223 21.26279111 13.54410667 31.60291555 30.87473778 31.60291556 31.02037333 6.84487111 12.23338667 22.42787555 16.74808889 34.66126222 9.75758222 12.23338667-6.84487111 16.74808889-22.42787555 9.75758222-34.66126222-1.60199111-2.91271111-16.74808889-28.83584-48.7879111-49.22481778-19.36952889-12.23338667-47.76846222-24.02986667-84.9055289-24.02986667z"  horiz-adv-x="1024" />

    
    <glyph glyph-name="jushou" unicode="&#58916;" d="M480.76800033-34.13333299999999c-49.834667 0-90.112 31.402667-115.712 57.344-7.509333 10.581333-144.042667 204.8-166.570667 245.418666-26.624 47.104-14.336 83.285333 5.802667 101.376 23.893333 21.504 60.757333 21.504 91.818666-0.682666 1.706667-1.365333 6.826667-4.778667 69.632-78.848V640.341333c0 25.6 13.653333 49.493333 35.498667 62.122667 21.845333 12.629333 49.152 12.970667 71.338667 0.341333v27.648c0 39.594667 32.085333 72.021333 71.338666 72.021334 31.061333 0 57.344-20.138667 67.242667-47.786667 1.024 0.682667 2.389333 1.365333 3.754667 2.389333 22.186667 12.970667 49.493333 12.970667 71.68 0 21.845333-12.970667 35.498667-36.522667 35.498666-62.122666v-45.397334c10.581333 6.144 22.528 9.557333 35.498667 9.557334 39.253333 0 71.338667-32.085333 71.338667-71.68l0.341333-437.589334c0.682667-49.834667 1.365333-97.28-25.941333-124.928-14.336-14.336-34.474667-21.845333-60.416-21.845333l-261.461334-36.181333c-0.341333-1.024-0.682667-1.024-0.682666-1.024zM246.95466633 350.20799999999997c-7.168 0-13.994667-2.389333-19.114666-6.826667-12.629333-11.264-11.946667-33.109333 1.706666-57.344 21.845333-38.912 161.450667-237.909333 162.816-239.957333 19.114667-19.114667 51.2-44.714667 86.016-44.714667l261.461334 36.181334c18.773333 0 30.037333 3.754667 37.205333 11.264 16.725333 17.066667 16.042667 57.002667 15.701333 99.328l-0.341333 25.258666v413.013334c0 19.797333-16.042667 35.84-35.498667 35.84-18.432 0-33.450667-13.994667-35.498666-31.744v-202.069334h-35.84l-0.341334 197.973334c0 2.048 0 3.754667 0.341334 5.802666V694.2719999999999c0 12.970667-6.826667 24.917333-17.749334 31.061333-10.922667 6.485333-24.576 6.144-35.498666 0-9.898667-5.802667-16.384-15.701333-17.749334-26.965333v-310.272h-35.84l-0.341333 305.834667c0 2.048 0 4.096 0.341333 5.802666v30.037334c0 19.797333-16.042667 35.84-35.498666 35.84s-35.498667-16.042667-35.498667-35.84V387.754667H471.89333333V642.048c-0.682667 11.946667-7.509333 22.869333-17.749333 28.672a34.816 34.816 0 0 1-35.498667 0c-10.922667-6.485333-17.749333-18.432-17.749333-31.061333v-447.829334l-31.744 37.546667c-41.642667 49.493333-89.429333 105.472-95.914667 111.274667-7.850667 6.485333-17.408 9.557333-26.282667 9.557333z"  horiz-adv-x="1024" />

    
    <glyph glyph-name="zanting" unicode="&#58939;" d="M242.90174041 801.68988318h62.30353794c34.46578693 0 62.30353794-27.83775099 62.30353792-62.30353794v-701.24620357c0-34.46578693-27.83775099-62.30353794-62.30353792-62.30353794h-62.30353794c-34.46578693 0-62.30353794 27.83775099-62.30353794 62.30353794V738.0607380399999c0 34.46578693 27.83775099 62.30353794 62.30353794 63.62914514z m489.14905316 0h62.30353793c34.46578693 0 62.30353794-27.83775099 62.30353793-62.30353794v-701.24620357c0-34.46578693-27.83775099-62.30353794-62.30353793-62.30353794h-62.30353793c-34.46578693 0-62.30353794 27.83775099-62.30353794 62.30353794V738.0607380399999c-1.3256072 34.46578693 27.83775099 62.30353794 62.30353794 63.62914514z m0 0"  horiz-adv-x="1024" />

    
    <glyph glyph-name="jushouxin" unicode="&#58996;" d="M876.62933334 632v-537.088c0-81.536-63.808-157.888-145.344-157.888h-273.92c-40 0-77.056 25.6-104.768 53.76 0 0-184 282.112-207.36 323.392-40.896 72.128 20.096 117.568 73.984 79.744 6.656-4.672 101.824-116.608 101.824-116.608V687.424a55.488 55.488 0 1 0 111.04 0v-259.2h37.184V780.032a55.424 55.424 0 1 0 111.04 0v-351.808h37.056V743.04a55.488 55.488 0 1 0 111.04 0v-314.816h37.056V632c0 30.656 24.832 55.424 55.616 55.424s55.552-24.768 55.552-55.424z"  horiz-adv-x="1024" />

    
    <glyph glyph-name="yanjing" unicode="&#59327;" d="M513.056052 702.625828c-237.313917 0-391.926274-213.485209-440.222233-290.960745-10.321066-16.557094-10.129708-37.538965 1.055028-53.526077 53.100382-75.904761 223.666082-292.764833 439.167205-292.764834 212.263381 0 380.931872 210.393801 436.694897 289.249777 12.392238 17.524119 11.871375 40.758286-1.212618 57.772798-60.041468 78.078263-241.072521 290.229081-435.482279 290.229081z m0-516.689813c-109.390409 0-198.065008 88.677669-198.065008 198.065008s88.674599 198.065008 198.065008 198.065008c109.387339 0 198.065008-88.677669 198.065008-198.065008s-88.677669-198.065008-198.065008-198.065008zM513.056052 384m-94.726431 0a94.726431 94.726431 0 1 1 189.452862 0 94.726431 94.726431 0 1 1-189.452862 0Z"  horiz-adv-x="1024" />

    
    <glyph glyph-name="pencil-copy" unicode="&#58880;" d="M987.136-30.211946669999975c0-15.417344-12.61021867-27.92379733-27.92379733-27.92379733H64.78779733c-15.417344 0-27.92379733 12.60475733-27.92379733 27.92379733 0 15.417344 12.60475733 27.92379733 27.92379733 27.92379734h894.418944c15.31904 0.00546133 27.92925867-12.50645333 27.92925867-27.92379734zM139.54798933 84.11014399999999l60.31496534 217.792512 516.440064 516.34176c23.953408 23.953408 54.97924267 23.7568 78.73604266 0l118.10679467-118.10133333c23.7568-23.7568 23.953408-54.689792 0-78.73604267l-516.15607467-516.54382933-217.97819733-60.309504c-30.05917867-6.30784-45.66766933 9.306112-39.46359467 39.55643733zM657.34792533 680.36213333l118.10679467-118.00849066 78.73604267 78.73604265c20.45815467 20.267008 19.103744 20.0704 0 39.36529067l-78.73604267 78.6432c-18.61768533 20.0704-20.45815467 20.0704-39.370752 0L657.34792533 680.36213333zM283.06090667 306.06965333000005l118.10133333-118.10679466 334.921728 334.921728-118.10133333 118.10133332-334.921728-334.91626666z m-83.87515734-201.883648l162.60573867 44.50986667-118.10133333 118.10133332-44.50440534-162.61119999z"  horiz-adv-x="1024" />

    
    <glyph glyph-name="shanchu" unicode="&#58902;" d="M181.57026286 635.46366316H151.34585775c-8.91092448 0-17.82363854-0.08061754-26.73456302 0.02328945-10.4104101 0.12003079-18.80000715 6.17351028-22.1841512 15.79745236-3.35548003 9.54332306-0.53207516 20.19200222 7.05671964 26.39596907 4.74747658 3.8839731 10.25275711 5.5411117 16.35998407 5.53931916 54.26634325-0.0214984 108.53089547-0.01254025 162.79723723-0.01254023h3.37339635v2.97747427c0 12.49213332-0.14869484 24.98605767 0.03045508 37.47639997 0.51595283 36.05753187 16.44955831 63.35820868 47.32069623 81.79633244 13.65302645 8.15311903 28.68908981 11.9672238 44.60119834 11.97259838 91.90039619 0.03045509 183.80079088 0.07703397 275.70297666-0.01254024 44.31276684-0.04299533 83.12025169-33.05139353 90.42240898-76.75504976 0.89933316-5.38525121 1.30779545-10.89948991 1.3937861-16.36177511 0.19885727-12.7268203 0.0627027-25.46080622 0.0627027-38.19120859v-2.90223136h3.15483316c56.81027477 0 113.62413161-0.11286514 170.43440492 0.08599214 12.91851044 0.04478785 19.43598928-5.95494713 23.96132059-16.25786814 3.85889262-8.78731013 2.53855692-16.63408283-3.6062908-23.65855635-4.75106013-5.43541219-11.04460118-7.89335158-18.24822462-7.90768287-14.80137786-0.026873-29.59917217-0.00716564-44.39875899-0.00716564h-2.94522668V45.83425073000001c-0.00179105-44.98636972-30.80306063-82.9375182-74.8327691-91.8896455-5.72384371-1.16447522-11.67700125-1.69655038-17.52445931-1.70013393-171.22983109-0.08778318-342.46145469-0.2776823-513.69128575 0.09494883-36.87983105 0.08061754-64.12138725 18.03682709-81.87157538 50.21396942-7.32544527 13.27860281-10.39966089 27.75571801-10.40145195 42.87240037-0.01433129 195.41867154-0.00895817 390.83913558-0.00895814 586.25780713v3.78006611z m650.58521876-0.19348122H232.18015434c0-4.79763902 0.01970589-9.40537743-0.00358357-14.01490983-0.15227692-31.26347641-0.31709556-62.52516031-0.47295601-93.78863673l-0.47833063-95.93485515c-0.15765152-31.42292044-0.32067911-62.84404837-0.47653959-94.26517632-0.16302611-33.2538329-0.31351199-66.50587474-0.48012167-99.7579166-0.15048587-30.14916217-0.32605372-60.29832581-0.47295602-90.44569693-0.17019323-34.92172069-0.32963581-69.84523245-0.47474854-104.76695314-0.03045509-7.21078906 1.93661195-13.89308655 6.19680121-19.68859112 11.04101764-15.01814852 26.24369216-22.5872389 44.63344448-22.60336269 170.5132314-0.14690233 341.02646279-0.06091165 511.53969419-0.14152772 11.50501698-0.0053746 20.47326807 4.58624149 27.41712404 13.37534268 9.25668407 11.71641303 12.99196234 25.42497651 12.99912799 40.08124163 0.07165938 193.10942847 0.0465789 386.22064797 0.0465789 579.33186748l0.0017925 2.61917444z m-489.16922741 48.08924942h363.76060549v2.73920377 38.18762502c-0.0053746 24.9036491-20.49297542 45.41274686-45.36975153 45.41453937-91.09601185 0-182.19023265 0.00358355-273.28445198-0.02328945-2.45435582 0-4.93021004-0.18273347-7.35948537-0.5338662-19.93044371-2.88789861-37.18975949-21.68074011-37.81141034-41.8154157-0.44429198-14.38574994-0.10928159-28.79658034-0.11286515-43.19666008 0-0.22214672 0.10032343-0.44429198 0.17735888-0.77213673zM563.51818132 322.0012282c0-52.50709019 0.00895817-105.01059679-0.00716565-157.51768698-0.00358355-12.07113078-7.08359265-21.13074862-18.43454018-23.72305007-14.97156962-3.41818271-28.83420108 7.28603347-29.29103476 22.62665216-0.02328945 0.71480864-0.01074921 1.43320083-0.01074922 2.14800947-0.00179105 105.40830988-0.01074921 210.81841082 0.04120429 316.22672068 0 3.15483317 0.28126587 6.39386596 1.02652959 9.44658172 2.2590821 9.25489156 9.78159359 15.1220555 19.77637576 15.80640905 11.95289105 0.81871563 19.79966373-4.2619803 24.36978141-15.74728843 1.71625774-4.31393379 2.60663274-8.6905688 2.59588501-13.42192303-0.10569803-51.94814203-0.06628625-103.89628256-0.06628625-155.84442457zM366.65735079 323.97187879c0 52.58770772-0.01254025 105.17362292 0.03224761 157.75953812 0.00179105 2.92372829 0.15406944 5.91911742 0.78646948 8.75685504 2.17667351 9.75292955 9.61140036 15.80103445 19.91611097 16.52659228 11.89735546 0.83483942 19.6778419-4.13836595 24.27483258-15.49647912 1.83091392-4.52532985 2.80728105-9.11873844 2.80369898-14.10269304-0.09136673-104.13813517-0.06807729-208.2762718-0.07166084-312.41440698 0-12.42047393-7.02088995-21.6072882-18.4829116-24.2336283-15.18117611-3.47909437-29.17279503 7.4741401-29.23370522 23.06198746-0.0895757 22.91150011-0.02508049 45.82300166-0.02508196 68.73450174v91.4077328zM665.05326731 324.04533067c0 52.58770772-0.01254025 105.17362292 0.03045508 157.75953811 0.00179105 2.8466943 0.13794562 5.75788235 0.73630705 8.52754269 2.11217979 9.81025764 9.67410306 15.99451713 20.04330738 16.68424529 11.90631215 0.79363514 19.65276142-4.19748508 24.23004622-15.56813999 1.82374827-4.53249695 2.77503493-9.13127869 2.76965886-14.10806763-0.08778318-104.13813517-0.06449373-208.2762718-0.0680773-312.41440698-0.00179105-12.27894475-7.01730786-21.49621558-18.32167504-24.12792881-15.30478897-3.56150294-29.353736 7.39352255-29.39673281 23.10319027-0.07703397 28.08356276-0.02328945 56.1671255-0.02328944 84.24889721v75.89512984z"  horiz-adv-x="1024" />

    
    <glyph glyph-name="diannao" unicode="&#58884;" d="M988.304 805.875H171.773c-45.077-0.05-81.605-36.581-81.65-81.654v-544.348c0.05-45.073 36.576-81.599 81.644-81.65h381.051v-81.659H416.731c-15.031-0.003-27.216-12.188-27.216-27.219s12.185-27.218 27.215-27.219h326.617c15.031 0.003 27.216 12.188 27.216 27.219s-12.185 27.217-27.215 27.219H607.261v81.65h381.045c45.077 0.05 81.605 36.581 81.65 81.654V724.216c-0.045 45.078-36.572 81.609-81.644 81.659z m-816.529-54.44h816.531c15.028-0.011 27.207-12.191 27.219-27.218V261.52h-870.96V724.215c0.011 15.025 12.186 27.203 27.207 27.219z m816.529-598.783H171.773c-15.028 0.011-27.207 12.191-27.219 27.218v27.211h870.96v-27.219c-0.017-15.022-12.188-27.193-27.209-27.21z"  horiz-adv-x="1189" />

    
    <glyph glyph-name="tupian1" unicode="&#60155;" d="M891.2384 777.1648h-758.5792c-40.30464 0-71.12704-30.81216-71.12704-71.1168v-661.38112c0-37.9392 30.8224-71.12704 71.12704-71.12704h758.5792c37.92896 0 71.1168 33.18784 71.1168 71.12704V706.048c0 37.92896-30.8224 71.1168-71.1168 71.1168zM293.85728 656.2816c40.2944 0 75.85792-33.18784 75.85792-75.85792s-33.18784-75.85792-75.85792-75.85792c-40.30464 0-75.85792 33.1776-75.85792 75.85792 0 42.67008 35.55328 75.85792 75.85792 75.85792z m-54.528-576.0512c-7.10656 0-14.22336 2.37568-21.32992 7.1168-14.2336 11.84768-14.2336 28.44672-2.37568 42.67008l146.97472 206.2336c11.85792 11.85792 28.44672 14.2336 42.67008 4.74112l128.01024-90.08128 229.94944 246.53824c11.84768 11.85792 68.75136 73.49248 101.9392 4.74112v-419.584c0-2.37568-625.83808-2.37568-625.83808-2.37568z"  horiz-adv-x="1024" />

    
    <glyph glyph-name="dianji" unicode="&#58973;" d="M512-97.27999999999997C245.76-97.27999999999997 30.72 117.75999999999999 30.72 384S245.76 865.28 512 865.28 993.28 650.24 993.28 384 778.24-97.27999999999997 512-97.27999999999997z m0 58.026667c232.106667 0 423.253333 187.733333 423.253333 423.253333S744.106667 807.253333 512 807.253333 88.746667 616.106667 88.746667 384 279.893333-39.253333 512-39.253333zM512 384m-211.626667 0a211.626667 211.626667 0 1 1 423.253334 0 211.626667 211.626667 0 1 1-423.253334 0Z"  horiz-adv-x="1024" />

    
    <glyph glyph-name="ICONbiaozhun_fuzhi-" unicode="&#58896;" d="M769.41084445 90.18026667000004a36.40888889 36.40888889 0 0 0-25.85031112 10.55857778L228.73884445 615.56053333a36.40888889 36.40888889 0 1 0 51.70062222 51.70062222l514.82168888-514.82168888a36.40888889 36.40888889 0 0 0 0-51.70062222 36.40888889 36.40888889 0 0 0-25.8503111-10.55857778zM254.58915555 90.18026667000004a36.40888889 36.40888889 0 0 0-25.8503111 10.55857778 36.40888889 36.40888889 0 0 0 0 51.70062222L743.56053333 667.26115555a36.40888889 36.40888889 0 1 0 51.70062222-51.70062222L280.43946667 100.73884444999999a36.40888889 36.40888889 0 0 0-25.85031112-10.55857778z"  horiz-adv-x="1024" />

    
    <glyph glyph-name="wenzi1" unicode="&#58942;" d="M528.46341479 796.40853698l362.54496946-812.05792684a15.66082314 15.66082314 0 0 0-14.40548794-22.01981754h-35.66387219a15.59908521 15.59908521 0 0 0-14.22027412 9.05487781l-118.6394815 274.93902493a15.61966479 15.61966479 0 0 1-14.22027494 9.0548778H332.11661575a15.59908521 15.59908521 0 0 1-14.2408537-9.0548778L200.32698151-28.61432959000001a15.57850644 15.57850644 0 0 0-14.2408537-9.05487781H147.1913111a15.7019815 15.7019815 0 0 0-14.26143329 22.22561014L499.81707315 796.40853698A15.43445095 15.43445095 0 0 0 514.05792686 805.6692074a15.47561014 15.47561014 0 0 0 14.40548793-9.26067042z m-26.21798793-164.2225611l-132.90091481-288.52134163a15.8254574 15.8254574 0 0 1 14.2408537-22.43140275H643.70731672a15.76371945 15.76371945 0 0 1 14.26143328 22.22561015L525.99390274 632.18597588a12.3475611 12.3475611 0 0 1-23.85137219 1e-8z"  horiz-adv-x="1024" />

    
    <glyph glyph-name="shipin" unicode="&#58999;" d="M512 258.844444c-125.155556 0-221.866667 102.4-221.866667 221.866667 0 125.155556 102.4 221.866667 221.866667 221.866667 125.155556 0 221.866667-102.4 221.866667-221.866667s-96.711111-221.866667-221.866667-221.866667m0 540.444445c-176.355556 0-318.577778-142.222222-318.577778-318.577778s142.222222-318.577778 318.577778-318.577778 318.577778 142.222222 318.577778 318.577778c0 176.355556-142.222222 318.577778-318.577778 318.577778M512 93.866667c176.355556 0 318.577778-56.888889 318.577778-113.777778 0 0 0-17.066667-17.066667-17.066667H210.488889c-17.066667 0-17.066667 17.066667-17.066667 17.066667 0 62.577778 142.222222 113.777778 318.577778 113.777778M603.022222 611.555556c11.377778-11.377778 17.066667-22.755556 17.066667-39.822223 0-28.444444-22.755556-51.2-51.2-51.2-34.133333 0-56.888889 22.755556-56.888889 51.2s22.755556 51.2 51.2 51.2h11.377778c-17.066667 11.377778-39.822222 17.066667-62.577778 17.066667-91.022222 0-159.288889-73.955556-159.288889-159.288889 0-91.022222 73.955556-159.288889 159.288889-159.288889 91.022222 0 159.288889 73.955556 159.288889 159.288889 0 56.888889-28.444444 102.4-68.266667 130.844445"  horiz-adv-x="1024" />

    
    <glyph glyph-name="luyin" unicode="&#61161;" d="M512 226c104.8 0.3 189.7 85.2 190 190V608c0 104.9-85.1 190-190 190s-190-85.1-190-190v-192c0.3-104.8 85.2-189.7 190-190zM382 608c0.3 71.7 58.3 129.7 130 130 71.7-0.3 129.7-58.3 130-130v-192c0-71.8-58.2-130-130-130s-130 58.2-130 130V608zM800 477.8c-16.6 0-30-13.4-30-30V416c0-142.5-115.5-258-258-258S254 273.5 254 416v31.8c0 16.6-13.4 30-30 30s-30-13.4-30-30V416c0-165.5 126.4-301.5 288-316.6V0c0-16.6 13.4-30 30-30s30 13.4 30 30v99.4C703.6 114.5 830 250.5 830 416v31.8c0 16.6-13.4 30-30 30z"  horiz-adv-x="1024" />

    
    <glyph glyph-name="shouji1" unicode="&#58898;" d="M841.009119 770.281418c0 69.432694-56.279889 125.717582-125.717582 125.717582H308.711463c-69.432694 0-125.720582-56.284888-125.720582-125.717582v-772.533838c0-69.439693 56.287888-125.725582 125.720582-125.725582H715.291537c69.436694 0 125.717582 56.285888 125.717582 125.725582V770.281418z m-612.272393-71.335521h566.533547v-606.411926H228.736726V698.945897z m80.009734 151.308258h406.522079c44.181987 0 80.001734-35.818747 80.001734-80.006734v-25.560679H228.736726v25.560679c0 44.186987 35.823746 80.006734 80.003734 80.006734h0.006z m406.522079-932.491311H308.74646c-44.185987 0-80.009733 35.818747-80.009734 80.006734v50.193441h566.533547v-50.193441c0-44.187987-35.819747-80.006734-80.001734-80.006734zM513.709845 19.316621c-19.15326 0-34.735845-15.589584-34.735846-34.734846 0-19.147261 15.582585-34.730846 34.729846-34.730845 19.15326 0 34.729846 15.583585 34.729846 34.730845 0 19.145261-15.576585 34.728846-34.729846 34.728846l0.006 0.006z"  horiz-adv-x="1024" />

    
    <glyph glyph-name="full_screen" unicode="&#59030;" d="M145.93797821 503.66762235a17.19235845 17.19235845 0 0 0-12.26944336-5.05112375C124.14245495 498.65588793 116.45146178 506.41098504 116.49239607 515.93783818V762.20099316c0.01853633 4.55141816 2.87775037 8.90897801 6.09301492 12.12424255l0.08032362 0.07877868A17.24951166 17.24951166 0 0 0 134.93440549 779.37713193h238.93979713c9.52608067-0.08264104 17.18154533-9.96322649 17.09813259-19.48930639-0.08186857-9.52530818-7.87172092-15.24219208-17.39934577-15.1595518H150.9906469V515.79263738a17.19081351 17.19081351 0 0 0-5.05266869-12.12501503zM443.297811 448.38638998c-6.73637712-6.73637712-17.65808127-6.73714961-24.39445838 0L125.21292234 742.07913692c-6.73714961 6.73714961-6.73714961 17.65808127 0 24.39445838 6.73637712 6.73637712 17.65808127 6.73714961 24.39445838 0L443.297811 472.7808476c6.73637712-6.73637712 6.73637712-17.65808127 0-24.39445762zM631.66071795 750.0613034a17.19235845 17.19235845 0 0 0-5.05035204 12.26944336c0.03938933 9.52685237 7.7944872 17.21707306 17.32211207 17.17691125h246.26315496c4.55141816-0.01853633 8.90820554-2.87775037 12.12424256-6.09301493l0.07877867-0.08032361A17.24642252 17.24642252 0 0 0 907.37177172 761.06564858v-238.93979713c-0.08264104-9.52608067-9.96322649-17.18154533-19.48930638-17.09813257-9.52608067 0.08186857-15.24219208 7.87172092-15.16032352 17.39934576V745.00863471H643.78573299a17.19853672 17.19853672 0 0 0-12.12501504 5.05266869zM576.38025729 452.70224307c-6.73714961 6.73637712-6.73714961 17.65808127 0 24.39445839L870.07223253 770.78713174c6.73714961 6.73714961 17.65808127 6.73714961 24.39445761 0 6.73714961-6.73637712 6.73714961-17.65808127 0-24.39445839L600.7739432 452.70224307c-6.73637712-6.73637712-17.65808127-6.73637712-24.39368591 0zM145.93797821 264.33315786000003a17.19235845 17.19235845 0 0 1-12.26944336 5.05112373C124.14245495 269.34411979000004 116.45146178 261.58902269 116.49239607 252.06216954V5.799014579999948c0.01853633-4.55141816 2.87775037-8.90897801 6.09301492-12.12424255l0.08032362-0.07955115a17.24873918 17.24873918 0 0 1 12.26867088-4.97234508h238.93979713c9.52608067 0.08264104 17.18154533 9.96245401 17.09813259 19.48930638-0.08186857 9.52530818-7.87172092 15.24219208-17.39934577 15.15955181H150.9906469V252.20737035000002a17.19390263 17.19390263 0 0 1-5.05266869 12.12578751zM443.297811 319.61361774c-6.73637712 6.73637712-17.65808127 6.73714961-24.39445838 0L125.21292234 25.920870809999997c-6.73714961-6.73714961-6.73714961-17.65730878 0-24.39368592 6.73637712-6.73714961 17.65808127-6.73714961 24.39445838 0L443.297811 295.21916013c6.73637712 6.73714961 6.73637712 17.65808127 0 24.39445761zM631.66071795 17.93793185000004a17.19004102 17.19004102 0 0 1-5.05035204-12.26867088c0.03938933-9.52762484 7.7944872-17.21784553 17.32211207-17.17691125h246.26315496c4.55141816 0.01776386 8.90820554 2.87775037 12.12424256 6.09301491l0.07877867 0.08032362a17.2479667 17.2479667 0 0 1 4.97311755 12.26944336V245.87415626999996c-0.08264104 9.52608067-9.96322649 17.18154533-19.48930638 17.09813259-9.52608067-0.08186857-15.24219208-7.87172092-15.16032352-17.39934578v-222.58157005H643.78573299a17.19622006 17.19622006 0 0 1-12.12501504-5.05344118zM576.38025729 315.29776465c-6.73714961-6.73637712-6.73714961-17.65808127 0-24.39445839l293.69197524-293.69043027c6.73714961-6.73714961 17.65808127-6.73792131 24.39445761-0.00077248 6.73714961 6.73637712 6.73714961 17.65808127 0 24.39445839l-293.69274694 293.69120275c-6.73637712 6.73714961-17.65808127 6.73714961-24.39368591 0z"  horiz-adv-x="1024" />

    
    <glyph glyph-name="audio" unicode="&#59036;" d="M797.473-127.49800000000005H226.527c-35.095 0-68.238 11.66000001-93.322 32.833-26.061 21.995-40.41199999 51.53-40.412 83.163V779.501c0 31.633 14.352 61.167 40.412 83.163C158.289 883.837 191.433 895.497 226.527 895.497h407.886l296.794-260.954v-646.046c0-31.633-14.352-61.168-40.412-83.163-25.08399999-21.17199999-58.22799999-32.832-93.322-32.832zM226.527 855.498c-51.686 0-93.734-34.09199999-93.734-75.996v-791.003c0-41.904 42.049-75.99600001 93.734-75.996h570.945c51.686 0 93.734 34.09199999 93.734 75.996V616.45L619.329 855.498H226.527zM885.906 598.453h-0.07799999l-133.03300001 0.508h-70.633c-46.792 0-84.859 39.281-84.859 87.565V864.7860000000001c0 11.046 8.954 20 20 20s20-8.954 20-20v-178.26c0-26.22800001 20.12400001-47.565 44.859-47.565h70.709l133.10900001-0.508c11.046-0.042 19.966-9.03 19.92399999-20.076-0.042-11.02000001-8.989-19.92400001-19.998-19.924zM450.561 127.41399999999999c0-3.494-1.754-6.327-3.916-6.327h-78.189c-2.162 0-3.91600001 2.833-3.91600001 6.327V253.77700000000004c0 3.494 1.754 6.327 3.91600001 6.327h78.189c2.162 0 3.91600001-2.833 3.916-6.327v-126.363zM661.504 127.41399999999999c0-3.494-1.754-6.327-3.91600001-6.327h-78.18899999c-2.162 0-3.91600001 2.833-3.916 6.327V253.77700000000004c0 3.494 1.754 6.327 3.916 6.327h78.18900001c2.162 0 3.91600001-2.833 3.91599999-6.327v-126.363zM699.434 161.06899999999996c-11.046 0-20 8.954-20 20V326.12399999c0 43.245-17.297 83.995-48.703 114.74200001-32.792 32.104-76.41 49.215-122.877 48.25799999-91.559-1.985-163.287-74.563-163.287-165.22999999V183.29999998999995c0-11.046-8.954-20-20-19.99999998s-20 8.954-20 20V323.894c0 54.014 20.806 104.957 58.585 143.445 37.936 38.647 89.021 60.587 143.845 61.775 28.861 0.623 56.958-4.482 83.481-15.144 25.622-10.299 48.579-25.277 68.235-44.521 39.15600001-38.334 60.721-89.234 60.721-143.32499999v-145.05500001c0-11.046-8.955-20-20-20z"  horiz-adv-x="1024" />

    
    <glyph glyph-name="chehui" unicode="&#59027;" d="M615.5 629.2H188.6l128.2 128.2c10.3 10.3 14.2 25.1 10.4 39.1-3.8 13.9-14.7 24.8-28.6 28.6-13.9 3.8-28.9-0.3-39.1-10.4l-172.2-172c-15-15-23.4-35.3-23.4-56.6-0.2-21.5 8.2-42.1 23.4-57.2l172.2-172.2c7.6-7.6 17.9-11.9 28.6-11.9 10.8 0 21 4.3 28.6 11.9 7.6 7.6 11.9 17.9 11.9 28.6s-4.3 21-11.9 28.6l-135 134.7h433.8c145.3 0 263.6-117.9 263.6-263.1S760.9 22.4 615.6 22.4H332.9c-22.3 0-40.5-18.2-40.5-40.5s18.2-40.5 40.5-40.5h282.5c189.9 0 344.5 154.3 344.5 344s-154.5 344-344.4 343.8"  horiz-adv-x="1024" />

    
    <glyph glyph-name="shouji" unicode="&#58882;" d="M512.44032 79.15520000000004c-28.25557333 0-51.24437333-22.98424889-51.24437333-51.24664889 0-28.25557333 22.9888-51.24096 51.24437333-51.24096 28.26012445 0 51.24892445 22.98538667 51.24892445 51.24096 0 28.2624-22.9888 51.24664889-51.24892445 51.24664889z m0 0M765.96792889 885.76H258.91612445c-42.66097778 0-77.36206222-34.70336-77.36206223-77.3632v-850.94627555c0-42.65984 34.70222222-77.36206222 77.36206223-77.36206223h507.05180444c42.65984 0 77.36206222 34.70222222 77.36206222 77.36206223V808.3968c0 42.65984-34.70222222 77.3632-77.36206222 77.3632z m-507.05180444-51.57319111h507.05180444c14.22222222 0 25.79000889-11.56778667 25.79000889-25.79000889v-637.52305778H233.12725333V808.3968c0 14.22222222 11.56664889 25.79000889 25.78887112 25.79000889z m507.05180444-902.52288H258.91612445c-14.22222222 0-25.78887111 11.57006222-25.78887112 25.78659556V114.88711110999998H791.7568v-157.43544889c0.00113778-14.22222222-11.56664889-25.78773333-25.78887111-25.78773333z m0 0"  horiz-adv-x="1024" />

    
    <glyph glyph-name="wenjian1" unicode="&#58899;" d="M787.0000001 759.00000029c24.99999961 0 50.0000001-20.00000039 50.0000001-50.0000001v-650.00000039c0-24.99999961-20.00000039-50.0000001-50.0000001-50.00000009h-550.0000002c-24.99999961 0-50.0000001 20.00000039-50.0000001 50.00000009v650.00000039c0 24.99999961 20.00000039 50.0000001 50.0000001 50.0000001h550.0000002m0 50.0000001h-550.0000002c-55.0000002 0-100.0000002-45-100.00000019-100.0000002v-650.00000039c0-55.0000002 45-100.0000002 100.00000019-100.00000019h550.0000002c55.0000002 0 100.0000002 45 100.00000019 100.00000019v650.00000039c0 55.0000002-45 100.0000002-100.00000019 100.0000002zM712.00000039 629.00000039H311.99999961c-15.00000029 0-24.99999961-10.00000019-24.99999961-25.00000049s10.00000019-24.99999961 24.99999961-24.99999961h400.00000078c15.00000029 0 24.99999961 10.00000019 24.99999961 24.99999961s-10.00000019 24.99999961-24.99999961 25.00000049zM562.0000001 188.99999971H311.99999961c-15.00000029 0-24.99999961-10.00000019-24.99999961-24.99999961s10.00000019-24.99999961 24.99999961-25.00000049h250.00000049c15.00000029 0 24.99999961 10.00000019 24.99999961 25.00000049s-10.00000019 24.99999961-24.99999961 24.99999961zM712.00000039 138.99999961000003h-50.0000001c-15.00000029 0-24.99999961 10.00000019-25.00000049 25.00000049s10.00000019 24.99999961 25.00000049 24.99999961h50.0000001c15.00000029 0 24.99999961-10.00000019 24.99999961-24.99999961s-10.00000019-24.99999961-24.99999961-25.00000049zM712.00000039 408.99999961H311.99999961c-15.00000029 0-24.99999961-10.00000019-24.99999961-24.99999961s10.00000019-24.99999961 24.99999961-24.99999961h400.00000078c15.00000029 0 24.99999961 10.00000019 24.99999961 24.99999961s-10.00000019 24.99999961-24.99999961 24.99999961z"  horiz-adv-x="1024" />

    
    <glyph glyph-name="left" unicode="&#61162;" d="M753.16876599-117.68262000000004c6.44836299 0 12.896725 2.579345 18.05541501 7.738036 10.31738 10.31738 10.31738 25.793451 0 36.110831L309.521411 389.15869 758.327456 837.96473601c10.31738 10.31738 10.31738 25.793451 0 36.11083099-10.31738 10.31738-25.793451 10.31738-36.11083099 0L268.251889 420.11083099c-7.738035-7.738035-12.896725-19.345088-12.896725-30.95214099 0-11.60705301 5.15869-23.214106 12.896725-30.952141L735.11335-109.94458399999996c5.15869-5.15869 11.607053-7.738035 18.05541599-7.738036z"  horiz-adv-x="1024" />

    
    <glyph glyph-name="fuwei" unicode="&#58883;" d="M986.45333333 349.86666667h-100.53745778C869.68092445 169.74847999999997 726.25379555 26.329315550000047 546.13333333 10.094364449999944V-90.45333332999996a34.13333333 34.13333333 0 0 0-68.26666666 0v100.54769778C297.74620445 26.329315550000047 154.31907555 169.74847999999997 138.08412445 349.86666667H37.54666667a34.13333333 34.13333333 0 0 0 0 68.26666666h100.53745778C154.31907555 598.25152 297.74620445 741.67068445 477.86666667 757.9056355499999V858.45333333a34.13333333 34.13333333 0 0 0 68.26666666 0v-100.54769778C726.25379555 741.67068445 869.68092445 598.25152 885.91587555 418.13333333H986.45333333a34.13333333 34.13333333 0 0 0 0-68.26666666zM512 691.2c-169.66200889 0-307.2-137.53799111-307.2-307.2s137.53799111-307.2 307.2-307.2 307.2 137.53799111 307.2 307.2-137.53799111 307.2-307.2 307.2z m0-375.46666667a68.26666667 68.26666667 0 1 0 68.26666667 68.26666667 68.26666667 68.26666667 0 0 0-68.26666667-68.26666667z"  horiz-adv-x="1024" />

    


  </font>
</defs>
</svg>
